<?xml version="1.0" standalone="no"?> <!DOCTYPE svg PUBLIC "-//W3C//DTD SVG 1.0//EN" "http://www.w3.org/TR/2001/REC-SVG-20010904/DTD/svg10.dtd" > <svg xmlns="http://www.w3.org/2000/svg" width="100%" height="100%">
<defs >
<font horiz-adv-x="567" ><font-face
    font-family=""
    units-per-em="1000"
    panose-1="2 0 0 0 0 0 0 0 0 0"
    ascent="774"
    descent="-226"
    alphabetic="0" />
<missing-glyph horiz-adv-x="260" />
<glyph unicode=" " glyph-name="space" horiz-adv-x="260" />
<glyph unicode="!" glyph-name="exclam" horiz-adv-x="247" d="M94 164L82 710H165L153 164H94ZM147 -8T124 -8T86 7T70 44Q70 67 85 82T124 97T162 82T177 44Q177 22 162 7Z" />
<glyph unicode="&quot;" glyph-name="quotedbl" horiz-adv-x="403" d="M151 710V414H81V710H151ZM321 710V414H252V710H321Z" />
<glyph unicode="#" glyph-name="numbersign" horiz-adv-x="616" d="M573 494L561 435H452L419 273H527L515 214H406L361 0H300L344 214H212L168 0H106L151 214H43L55 273H164L198 435H88L101 494H211L256 710H318L272 494H404L450 710H511L465 494H573ZM259 435L225
273H357L391 435H259Z" />
<glyph unicode="$" glyph-name="dollar" horiz-adv-x="582" d="M328 -124H278V-14Q162 -10 105 50T39 201H112Q129 60 278 53V331L255 338Q159 367 114 415T68 535Q68 611 123 664T278 724V834H328V724Q429 717 482 658T541 509H468Q462 569 426 608T328 656V392L342
389Q449 366 496 315T543 185Q543 105 487 51T328 -13V-124ZM141 537Q141 486 170 458T278 406V657Q210 653 176 621T141 537ZM469 181Q469 232 438 263T328 317V54Q394 61 431 94T469 181Z" />
<glyph unicode="%" glyph-name="percent" horiz-adv-x="940" d="M243 0L635 710H697L305 0H243ZM138 490Q138 322 231 322Q323 322 323 490Q323 659 231 659Q138 659 138 490ZM76 383T76 490T115 656T231 716Q306 716 345 657T385 490T346 324T231 265Q155 265
116 324ZM617 219Q617 51 710 51Q802 51 802 219Q802 388 710 388Q617 388 617 219ZM555 112T555 219T594 385T710 445Q785 445 824 386T864 219T825 53T710 -6Q634 -6 595 53Z" />
<glyph unicode="&amp;" glyph-name="ampersand" horiz-adv-x="673" d="M118 548Q118 622 169 673T306 725T443 677T495 558Q495 491 453 444T314 361L502 170Q547 239 547 333L542 398H612Q616 369 616 335Q616 212 550 120L668 0H574L505 70Q413 -15 280 -15Q170
-15 108 39T46 180Q46 315 202 381Q118 468 118 548ZM281 50Q385 50 458 118L248 333Q182 305 150 271T118 182Q118 121 161 86T281 50ZM189 550Q189 488 260 416L267 408L297 421Q368 452 396 481T424 558T390 634T306 663Q254 663 222 633T189 550Z" />
<glyph unicode="&apos;" glyph-name="quotesingle" horiz-adv-x="232" d="M151 710V414H81V710H151Z" />
<glyph unicode="(" glyph-name="parenleft" horiz-adv-x="315" d="M163 292Q163 37 279 -166H207Q90 21 90 292T207 750H279Q163 546 163 292Z" />
<glyph unicode=")" glyph-name="parenright" horiz-adv-x="315" d="M152 292Q152 544 35 750H107Q225 561 225 292T107 -166H35Q152 39 152 292Z" />
<glyph unicode="*" glyph-name="asterisk" horiz-adv-x="389" d="M361 583L238 544L314 440L269 407L194 512L119 407L74 441L150 545L27 584L45 637L167 596L166 725H222L221 595L344 636L361 583Z" />
<glyph unicode="+" glyph-name="plus" horiz-adv-x="582" d="M257 509H326V288H549V220H326V0H257V220H33V288H257V509Z" />
<glyph unicode="," glyph-name="comma" horiz-adv-x="216" d="M79 94H163L90 -109H27L79 94Z" />
<glyph unicode="-" glyph-name="hyphen" horiz-adv-x="396" d="M352 288V221H44V288H352Z" />
<glyph unicode="." glyph-name="period" horiz-adv-x="216" d="M132 -8T108 -8T69 7T53 46Q53 69 68 84T108 100Q131 100 147 85T163 46Q163 22 148 7Z" />
<glyph unicode="/" glyph-name="slash" horiz-adv-x="408" d="M22 0L311 710H386L97 0H22Z" />
<glyph unicode="0" glyph-name="zero" horiz-adv-x="582" d="M409 -15T291 -15T108 84T43 355T108 626T291 725T474 626T539 355T474 84ZM372 657T291 657T164 580T118 355T164 130T291 53T418 130T464 355T418 580Z" />
<glyph unicode="1" glyph-name="one" horiz-adv-x="582" d="M513 64V0H105V64H273V639H113V689L289 710H346V64H513Z" />
<glyph unicode="2" glyph-name="two" horiz-adv-x="582" d="M526 0H55V62L339 323Q434 410 434 503Q434 574 394 616T282 658Q206 658 169 613T131 493L133 473H59Q57 484 57 495Q57 599 117 662T282 725Q391 725 450 665T509 506Q509 438 479 382T381 267L158 69H526V0Z" />
<glyph unicode="3" glyph-name="three" horiz-adv-x="582" d="M219 331V396H279Q359 396 401 432T444 523Q444 586 405 622T289 658Q220 658 183 620T141 525H68Q74 610 134 667T290 725Q396 725 456 670T517 526Q517 472 488 429T400 366Q465 347 496 303T528
199Q528 104 465 45T292 -15Q185 -15 124 44T53 201H127Q134 135 176 93T292 51T409 89T453 199Q453 264 408 297T284 331H219Z" />
<glyph unicode="4" glyph-name="four" horiz-adv-x="582" d="M545 240V174H453V0H382V174H26V238L375 710H453V240H545ZM382 608H381L109 240H382V608Z" />
<glyph unicode="5" glyph-name="five" horiz-adv-x="582" d="M73 303L130 710H496V641H187L155 405Q213 463 303 463Q407 463 468 396T529 231Q529 127 463 56T292 -15Q190 -15 127 41T54 191H129Q138 132 178 92T292 52Q364 52 409 101T455 231Q455 306 411 352T291
398Q233 398 193 368T139 303H73Z" />
<glyph unicode="6" glyph-name="six" horiz-adv-x="582" d="M297 -15Q187 -15 121 56T55 234Q55 470 323 710H420Q234 559 165 406Q222 461 308 461Q412 461 476 392T540 224T472 55T297 -15ZM464 147T464 224T417 349T297 398Q223 398 177 350T130 224T176 99T297
51Q370 51 417 99Z" />
<glyph unicode="7" glyph-name="seven" horiz-adv-x="582" d="M103 547H32V710H544V645Q429 499 365 350T270 0H192Q254 378 454 641H103V547Z" />
<glyph unicode="8" glyph-name="eight" horiz-adv-x="582" d="M406 -15T291 -15T114 42T52 190Q52 247 83 295T170 367Q122 390 97 435T72 532Q72 614 130 669T291 725T452 670T511 531Q511 480 485 435T411 367Q467 344 498 296T529 190Q529 99 468 42ZM366 332T291
332T172 295T127 193T169 90T291 50T413 89T455 193T411 294ZM291 397Q361 397 400 434T440 530Q440 587 402 623T291 660T181 624T142 531Q142 471 181 434T291 397Z" />
<glyph unicode="9" glyph-name="nine" horiz-adv-x="582" d="M286 725Q396 725 462 654T528 476Q528 239 259 0H163Q344 146 417 303Q357 248 274 248Q171 248 107 317T43 486T111 655T286 725ZM119 486Q119 408 165 360T286 311Q359 311 406 359T453 486Q453
563 406 611T286 659Q212 659 166 611T119 486Z" />
<glyph unicode=":" glyph-name="colon" horiz-adv-x="216" d="M132 -8T108 -8T69 7T53 46Q53 69 68 84T108 100Q131 100 147 85T163 46Q163 22 148 7ZM108 408Q84 408 69 423T53 462Q53 486 68 501T108 517Q131 517 147 502T163 462Q163 439 147 424T108 408Z" />
<glyph unicode=";" glyph-name="semicolon" horiz-adv-x="217" d="M108 408Q84 408 69 423T53 462Q53 486 68 501T108 517Q131 517 147 502T163 462Q163 439 147 424T108 408ZM79 94H163L90 -109H27L79 94Z" />
<glyph unicode="&lt;" glyph-name="less" horiz-adv-x="582" d="M528 101V27L54 221V282L528 476V403L143 252L528 101Z" />
<glyph unicode="=" glyph-name="equal" horiz-adv-x="582" d="M549 187V118H33V187H549ZM549 390V321H33V390H549Z" />
<glyph unicode="&gt;" glyph-name="greater" horiz-adv-x="582" d="M54 27V101L439 252L54 403V476L528 282V221L54 27Z" />
<glyph unicode="?" glyph-name="question" horiz-adv-x="522" d="M38 514Q38 604 97 664T256 725Q359 725 416 670T473 527Q473 478 453 437T405 368T349 316T301 263T281 205L285 164H215Q210 188 210 206Q210 247 229 281T276 341T332 391T379 450T399 523Q399
587 361 623T256 659Q191 659 152 618T112 510L115 471H41Q38 491 38 514ZM254 -8Q230 -8 215 6T200 44T215 82T254 97Q277 97 292 82T307 44Q307 22 292 7T254 -8Z" />
<glyph unicode="@" glyph-name="at" horiz-adv-x="825" d="M502 278Q502 327 481 356T417 385Q362 385 330 342T298 227Q298 119 391 119Q441 119 471 167T502 278ZM653 28H720Q672 -42 592 -82T418 -122Q247 -122 149 -20T51 247Q51 408 155 517T429 627Q586
627 680 540T774 314Q774 203 716 135T582 66Q513 66 497 128Q457 66 379 66Q313 66 274 109T235 226Q235 314 282 376T409 439Q494 439 524 373L535 425H593L549 204Q546 190 546 177Q546 151 558 136T593 121Q650 121 683 175T717 309Q717 433 638 503T428 574Q283
574 198 481T112 248Q112 100 194 16T419 -69Q495 -69 556 -41T653 28Z" />
<glyph unicode="A" glyph-name="A" horiz-adv-x="672" d="M82 0H4L296 710H375L668 0H587L520 166H150L82 0ZM336 621H334L176 234H493L336 621Z" />
<glyph unicode="B" glyph-name="B" horiz-adv-x="674" d="M371 0H101V710H364Q481 710 539 659T597 521Q597 464 568 421T486 360Q545 343 579 299T613 194Q613 100 550 50T371 0ZM374 326H174V68H373Q540 68 540 197Q540 261 496 293T374 326ZM367 642H174V394H367Q524
394 524 518T367 642Z" />
<glyph unicode="C" glyph-name="C" horiz-adv-x="781" d="M52 194T52 355T148 620T403 725Q533 725 623 653T738 460H661Q640 550 570 603T403 656Q279 656 204 573T128 355T203 137T403 54Q500 54 570 107T661 250H738Q713 129 623 57T403 -15Q245 -15 149 89Z" />
<glyph unicode="D" glyph-name="D" horiz-adv-x="763" d="M316 0H101V710H316Q502 710 606 614T711 355T607 96T316 0ZM635 220T635 355T553 565T312 640H174V70H312Q470 70 552 145Z" />
<glyph unicode="E" glyph-name="E" horiz-adv-x="636" d="M578 69V0H101V710H578V641H174V395H557V326H174V69H578Z" />
<glyph unicode="F" glyph-name="F" horiz-adv-x="583" d="M174 0H101V710H553V641H174V395H532V326H174V0Z" />
<glyph unicode="G" glyph-name="G" horiz-adv-x="822" d="M737 379V0H670V135Q632 66 561 26T400 -14Q243 -14 148 90T52 355T148 620T403 725Q530 725 619 658T735 474H658Q634 560 566 608T403 656Q279 656 204 573T128 355T204 136T403 52Q515 52 589 122T668
311H429V379H737Z" />
<glyph unicode="H" glyph-name="H" horiz-adv-x="764" d="M662 710V0H589V326H174V0H101V710H174V395H589V710H662Z" />
<glyph unicode="I" glyph-name="I" horiz-adv-x="276" d="M174 710V0H101V710H174Z" />
<glyph unicode="J" glyph-name="J" horiz-adv-x="593" d="M429 221V710H502V223Q502 115 441 51T274 -13Q169 -13 108 48T47 213L49 257H123Q121 240 121 213Q121 142 161 98T274 53Q348 53 388 97T429 221Z" />
<glyph unicode="K" glyph-name="K" horiz-adv-x="703" d="M700 0H607L329 362L174 210V0H101V710H174V301L582 710H680L380 414L700 0Z" />
<glyph unicode="L" glyph-name="L" horiz-adv-x="541" d="M530 69V0H101V710H174V69H530Z" />
<glyph unicode="M" glyph-name="M" horiz-adv-x="849" d="M167 710L424 379L682 710H748V0H675V586L426 270H422L174 586V0H101V710H167Z" />
<glyph unicode="N" glyph-name="N" horiz-adv-x="766" d="M174 593V0H101V710H178L592 116V710H665V0H588L174 593Z" />
<glyph unicode="O" glyph-name="O" horiz-adv-x="828" d="M128 488T128 355T209 138T414 54T619 138T700 355T619 572T414 656T209 572ZM776 513T776 355T676 91T414 -15T153 91T52 355T152 619T414 725T675 619Z" />
<glyph unicode="P" glyph-name="P" horiz-adv-x="644" d="M174 369H380Q455 369 492 404T530 505Q530 569 493 604T380 640H174V369ZM174 299V0H101V710H377Q494 710 550 654T606 505T550 356T377 299H174Z" />
<glyph unicode="Q" glyph-name="Q" horiz-adv-x="828" d="M776 355Q776 264 741 188T641 61L778 -130H692L583 23Q505 -15 414 -15Q253 -15 153 91T52 355T152 619T414 725T675 619T776 355ZM700 222T700 355T620 572T414 656Q290 656 209 572T128 355T209 138T414
54T619 138Z" />
<glyph unicode="R" glyph-name="R" horiz-adv-x="672" d="M637 0H549L382 309H174V0H101V710H393Q508 710 564 655T621 510Q621 435 581 383T458 316L637 0ZM545 510Q545 570 508 605T396 640H174V379H396Q470 379 507 413T545 510Z" />
<glyph unicode="S" glyph-name="S" horiz-adv-x="633" d="M307 52Q396 52 446 86T497 185Q497 230 474 259T414 301T332 323T242 343T160 372T99 428T76 525Q76 607 141 666T319 725Q434 725 498 661T564 495H493Q491 569 445 614T320 659Q240 659 195 624T149
528Q149 486 172 460T233 420T315 399T405 378T487 346T547 288T571 190Q571 98 498 42T305 -14Q176 -14 110 50T40 215H112Q118 136 170 94T307 52Z" />
<glyph unicode="T" glyph-name="T" horiz-adv-x="545" d="M536 710V640H309V0H236V640H9V710H536Z" />
<glyph unicode="U" glyph-name="U" horiz-adv-x="736" d="M368 -15Q239 -15 163 64T86 293V710H159V286Q159 178 213 115T368 52T522 115T577 286V710H650V293Q650 143 573 64T368 -15Z" />
<glyph unicode="V" glyph-name="V" horiz-adv-x="669" d="M579 710H659L373 0H295L10 710H92L335 93H337L579 710Z" />
<glyph unicode="W" glyph-name="W" horiz-adv-x="1033" d="M516 613L325 0H245L17 710H99L284 97H286L476 710H559L749 96H751L937 710H1016L788 -1H707L518 613H516Z" />
<glyph unicode="X" glyph-name="X" horiz-adv-x="675" d="M337 417L567 710H658L381 360L669 0H574L337 303L99 0H6L293 360L14 710H108L337 417Z" />
<glyph unicode="Y" glyph-name="Y" horiz-adv-x="615" d="M530 710H615L344 252V0H271V252L0 710H82L307 329H309L530 710Z" />
<glyph unicode="Z" glyph-name="Z" horiz-adv-x="642" d="M594 710V647L139 69H598V0H44V63L500 641H48V710H594Z" />
<glyph unicode="[" glyph-name="bracketleft" horiz-adv-x="301" d="M279 -100V-166H75V750H279V684H144V-100H279Z" />
<glyph unicode="\" glyph-name="backslash" horiz-adv-x="408" d="M97 710L386 0H311L22 710H97Z" />
<glyph unicode="]" glyph-name="bracketright" horiz-adv-x="301" d="M22 -166V-100H157V684H22V750H226V-166H22Z" />
<glyph unicode="^" glyph-name="asciicircum" horiz-adv-x="582" d="M515 241H442L291 619L140 241H67L260 710H321L515 241Z" />
<glyph unicode="_" glyph-name="underscore" horiz-adv-x="500" d="M500 -96V-163H0V-96H500Z" />
<glyph unicode="`" glyph-name="grave" horiz-adv-x="349" d="M103 759H181L247 589H181L103 759Z" />
<glyph unicode="a" glyph-name="a" horiz-adv-x="576" d="M422 261L253 238Q183 229 153 205T122 140Q122 90 156 69T240 47Q325 47 373 94T422 202V261ZM232 -12Q143 -12 98 28T52 140Q52 269 244 294L422 317V331Q422 460 278 460Q156 460 136 359H65Q76 433
128 477T281 521Q387 521 440 470T493 330V107Q493 32 508 0H438Q427 30 427 87Q369 -12 232 -12Z" />
<glyph unicode="b" glyph-name="b" horiz-adv-x="638" d="M158 417Q216 521 348 521Q461 521 525 444T589 254Q589 143 525 66T348 -12Q214 -12 155 94V0H87V750H158V417ZM156 254Q156 168 204 110T335 52T467 110T517 254Q517 341 468 399T335 457T204 400T156 254Z" />
<glyph unicode="c" glyph-name="c" horiz-adv-x="577" d="M49 145T49 254T118 442T300 521Q398 521 460 466T538 328H466Q450 388 407 422T300 457Q220 457 171 400T121 254Q121 166 170 109T300 52Q364 52 407 86T466 181H538Q522 99 460 44T300 -12Q188 -12 119 66Z" />
<glyph unicode="d" glyph-name="d" horiz-adv-x="638" d="M479 417V750H550V0H482V94Q425 -12 289 -12Q177 -12 113 65T49 254Q49 366 113 443T289 521Q421 521 479 417ZM482 254Q482 342 434 399T303 457T171 399T121 254Q121 168 170 110T303 52T434 110T482 254Z" />
<glyph unicode="e" glyph-name="e" horiz-adv-x="593" d="M543 234H120Q125 154 174 103T301 52Q358 52 401 81T461 159H535Q512 83 450 36T300 -12Q184 -12 117 65T49 255Q49 365 118 443T299 521T477 447T544 261L543 234ZM299 457Q227 457 179 411T122 292H473Q466
367 420 412T299 457Z" />
<glyph unicode="f" glyph-name="f" horiz-adv-x="311" d="M110 509V593Q110 671 151 710T261 750L295 748V683Q285 685 267 685Q224 685 203 664T181 596V509H296V449H181V0H110V449H11V509H110Z" />
<glyph unicode="g" glyph-name="g" horiz-adv-x="632" d="M481 416V509H549V25Q549 -83 488 -151T311 -219Q211 -219 153 -171T79 -57H152Q167 -102 209 -128T313 -155Q390 -155 434 -110T478 9V104Q419 1 289 1Q179 1 114 77T49 261T114 445T289 521Q422 521
481 416ZM481 176T481 261T433 401T302 457T171 401T121 261T170 121T302 64T432 120Z" />
<glyph unicode="h" glyph-name="h" horiz-adv-x="598" d="M158 750V438Q176 469 218 495T323 521Q415 521 465 467T516 325V0H445V311Q445 382 412 420T311 459T201 418T158 301V0H87V750H158Z" />
<glyph unicode="i" glyph-name="i" horiz-adv-x="246" d="M123 635Q100 635 86 648T72 684T86 720T123 735Q145 735 159 721T174 684T160 649T123 635ZM87 0V509H158V0H87Z" />
<glyph unicode="j" glyph-name="j" horiz-adv-x="246" d="M123 635Q100 635 86 648T72 684T86 720T123 735Q145 735 159 721T174 684T160 649T123 635ZM-21 -218V-153Q-17 -154 1 -154Q44 -154 65 -133T87 -65V509H158V-62Q158 -140 117 -179T7 -219L-21 -218Z" />
<glyph unicode="k" glyph-name="k" horiz-adv-x="553" d="M439 509H534L323 299L550 0H462L273 251L158 139V0H87V750H158V226L439 509Z" />
<glyph unicode="l" glyph-name="l" horiz-adv-x="246" d="M158 0H87V750H158V0Z" />
<glyph unicode="m" glyph-name="m" horiz-adv-x="930" d="M503 297V0H432V311Q432 380 401 419T304 459Q240 459 199 417T158 303V0H87V509H155V431Q204 521 316 521Q437 521 482 423Q506 464 552 492T661 521Q750 521 798 466T847 325V0H776V311Q776 379 745
419T649 459Q586 459 545 417T503 297Z" />
<glyph unicode="n" glyph-name="n" horiz-adv-x="598" d="M155 509V431Q173 465 215 493T323 521Q415 521 465 467T516 325V0H445V311Q445 382 412 420T311 459T201 418T158 303V0H87V509H155Z" />
<glyph unicode="o" glyph-name="o" horiz-adv-x="617" d="M308 -12Q192 -12 121 66T49 254Q49 364 120 442T308 521Q425 521 496 443T568 254Q568 145 497 67T308 -12ZM121 254Q121 167 173 110T308 52Q392 52 444 109T496 254Q496 342 444 399T308 457T173 400T121 254Z" />
<glyph unicode="p" glyph-name="p" horiz-adv-x="638" d="M158 92V-208H87V509H155V415Q215 521 348 521Q461 521 525 444T589 254Q589 143 525 66T348 -12Q215 -12 158 92ZM156 254Q156 168 204 110T335 52T467 110T517 254Q517 341 468 399T335 457T204 400T156 254Z" />
<glyph unicode="q" glyph-name="q" horiz-adv-x="638" d="M479 92Q422 -12 289 -12Q177 -12 113 65T49 254Q49 366 113 443T289 521Q424 521 482 415V509H550V-208H479V92ZM482 254Q482 342 434 399T303 457T171 399T121 254T170 109T303 51T434 109T482 254Z" />
<glyph unicode="r" glyph-name="r" horiz-adv-x="351" d="M335 513V446Q323 447 310 447Q242 447 200 407T158 289V0H87V509H155V430Q173 463 214 488T318 514L335 513Z" />
<glyph unicode="s" glyph-name="s" horiz-adv-x="504" d="M250 -12Q147 -12 97 36T41 159H113Q117 108 151 79T250 50Q313 50 348 73T384 136Q384 176 352 195T273 222T181 239T102 281T69 371Q69 433 120 477T258 521Q354 521 400 472T452 360H381Q376 404 345
431T256 459Q199 459 169 435T138 374Q138 341 161 322T220 298T295 283T371 263T429 220T453 138Q453 76 401 32T250 -12Z" />
<glyph unicode="t" glyph-name="t" horiz-adv-x="323" d="M294 67V3Q276 -2 240 -2Q108 -2 108 137V449H11V509H108V654H179V509H296V449H179V142Q179 62 249 62L294 67Z" />
<glyph unicode="u" glyph-name="u" horiz-adv-x="593" d="M434 208V509H505V0H437V74Q420 42 379 15T272 -12Q180 -12 131 41T82 183V509H153V198Q153 50 284 50Q349 50 391 90T434 208Z" />
<glyph unicode="v" glyph-name="v" horiz-adv-x="532" d="M266 82L442 509H516L301 0H229L16 509H93L266 82Z" />
<glyph unicode="w" glyph-name="w" horiz-adv-x="827" d="M551 0L414 419H413L274 0H200L24 509H100L237 84L377 509H451L589 84L728 509H803L625 0H551Z" />
<glyph unicode="x" glyph-name="x" horiz-adv-x="540" d="M513 509L311 258L520 0H431L269 204L107 0H20L227 257L25 509H113L270 312L426 509H513Z" />
<glyph unicode="y" glyph-name="y" horiz-adv-x="532" d="M142 -208L229 0L16 509H93L266 82L441 509H516L214 -208H142Z" />
<glyph unicode="z" glyph-name="z" horiz-adv-x="526" d="M472 452L142 63H476V0H50V57L380 446H54V509H472V452Z" />
<glyph unicode="{" glyph-name="braceleft" horiz-adv-x="314" d="M243 -166Q178 -166 146 -130T114 -29V206Q114 260 63 260H40V324H63Q114 324 114 378V613Q114 678 146 714T243 750L292 746V680Q272 684 247 684Q212 684 198 667T183 616V383Q183 315 143 292Q183
267 183 200V-32Q183 -66 197 -83T247 -100L292 -96V-162Q274 -166 243 -166Z" />
<glyph unicode="|" glyph-name="bar" horiz-adv-x="274" d="M172 0H102V750H172V0Z" />
<glyph unicode="}" glyph-name="braceright" horiz-adv-x="314" d="M71 -166L22 -162V-96Q42 -100 66 -100Q101 -100 116 -83T131 -32V200Q131 268 171 292Q131 315 131 383V616Q131 650 116 667T66 684L22 680V746Q40 750 71 750Q135 750 167 714T199 613V378Q199
324 250 324H274V260H250Q199 260 199 206V-29Q199 -94 167 -130T71 -166Z" />
<glyph unicode="~" glyph-name="asciitilde" horiz-adv-x="582" d="M393 195Q350 195 286 218T188 241Q160 241 138 230T108 206L100 194L46 232Q48 235 51 240T66 259T93 283T133 302T189 311Q233 311 296 288T394 265Q422 265 444 276T474 300L482 312L535 275Q534
272 531 267T516 247T489 223T449 204T393 195Z" />
</font>
</defs>
</svg>
