<?xml version="1.0" standalone="no"?> <!DOCTYPE svg PUBLIC "-//W3C//DTD SVG 1.0//EN" "http://www.w3.org/TR/2001/REC-SVG-20010904/DTD/svg10.dtd" > <svg xmlns="http://www.w3.org/2000/svg" width="100%" height="100%">
<defs >
<font horiz-adv-x="574" ><font-face
    font-family=""
    units-per-em="1000"
    panose-1="2 0 0 0 0 0 0 0 0 0"
    ascent="775"
    descent="-225"
    alphabetic="0" />
<missing-glyph horiz-adv-x="260" />
<glyph unicode=" " glyph-name="space" horiz-adv-x="260" />
<glyph unicode="!" glyph-name="exclam" horiz-adv-x="270" d="M86 200L65 710H205L184 200H86ZM135 -8Q101 -8 79 13T57 69T79 124T135 146T191 125T213 69T192 14T135 -8Z" />
<glyph unicode="&quot;" glyph-name="quotedbl" horiz-adv-x="430" d="M176 710V394H64V710H176ZM366 710V394H254V710H366Z" />
<glyph unicode="#" glyph-name="numbersign" horiz-adv-x="616" d="M582 507L563 418H467L440 291H536L518 202H421L379 0H287L329 202H227L185 0H93L136 202H34L53 291H155L181 418H79L98 507H200L243 710H335L292 507H394L437 710H529L486 507H582ZM273 418L246
291H348L375 418H273Z" />
<glyph unicode="$" glyph-name="dollar" horiz-adv-x="582" d="M334 -125H269V-14Q156 -8 97 56T35 216H155Q159 167 187 136T269 97V308L226 321Q57 372 57 522Q57 603 115 659T269 723V835H334V723Q434 713 489 651T546 495H425Q423 537 400 568T334 610V414L357
408Q455 381 500 328T546 193T490 55T334 -12V-125ZM178 526Q178 488 197 470T269 432V613Q227 608 203 585T178 526ZM423 192Q423 228 403 251T334 290V99Q375 106 399 130T423 192Z" />
<glyph unicode="%" glyph-name="percent" horiz-adv-x="955" d="M237 0L629 710H718L326 0H237ZM170 489Q170 414 187 383T238 351T289 382T306 489Q306 565 289 597T238 629T187 597T170 489ZM76 489Q76 595 116 655T238 716T360 656T400 489Q400 384 360 324T238
264T116 324T76 489ZM649 220Q649 144 666 113T717 81T768 112T785 220Q785 295 768 327T717 359T666 327T649 220ZM555 220Q555 325 595 385T717 446T839 386T879 220Q879 114 839 54T717 -6T595 54T555 220Z" />
<glyph unicode="&amp;" glyph-name="ampersand" horiz-adv-x="674" d="M109 543Q109 619 163 672T311 725Q404 725 458 673T512 546Q512 422 354 356L492 210Q520 263 520 333L516 393H625Q629 364 629 335Q629 216 567 128L687 0H541L493 51Q407 -15 287 -15Q175
-15 106 41T37 189Q37 327 180 390Q109 464 109 543ZM290 89Q364 89 421 129L251 312Q200 290 177 263T153 196Q153 148 189 119T290 89ZM220 543Q220 499 275 442L282 433L312 446Q401 482 401 546Q401 582 376 605T311 629Q270 629 245 605T220 543Z" />
<glyph unicode="&apos;" glyph-name="quotesingle" horiz-adv-x="240" d="M176 710V394H64V710H176Z" />
<glyph unicode="(" glyph-name="parenleft" horiz-adv-x="348" d="M211 292Q211 43 322 -166H202Q90 17 90 292T202 750H322Q211 540 211 292Z" />
<glyph unicode=")" glyph-name="parenright" horiz-adv-x="348" d="M137 292Q137 540 26 750H146Q258 567 258 292T146 -166H26Q137 43 137 292Z" />
<glyph unicode="*" glyph-name="asterisk" horiz-adv-x="388" d="M372 567L257 530L327 433L264 386L193 484L123 386L59 433L131 530L16 567L41 642L155 605V725H233V604L347 642L372 567Z" />
<glyph unicode="+" glyph-name="plus" horiz-adv-x="582" d="M235 519H347V315H552V203H347V0H235V203H30V315H235V519Z" />
<glyph unicode="," glyph-name="comma" horiz-adv-x="245" d="M70 139H203L121 -131H15L70 139Z" />
<glyph unicode="-" glyph-name="hyphen" horiz-adv-x="406" d="M362 315V204H44V315H362Z" />
<glyph unicode="." glyph-name="period" horiz-adv-x="245" d="M159 -8T123 -8T64 14T40 73Q40 108 63 131T123 155Q158 155 181 132T205 73Q205 37 182 15Z" />
<glyph unicode="/" glyph-name="slash" horiz-adv-x="453" d="M22 0L311 710H431L142 0H22Z" />
<glyph unicode="0" glyph-name="zero" horiz-adv-x="582" d="M291 -15Q167 -15 102 85T36 355T101 624T291 725Q414 725 480 625T546 355T480 86T291 -15ZM422 610T291 610T160 355T291 100T422 355Z" />
<glyph unicode="1" glyph-name="one" horiz-adv-x="582" d="M526 101V0H92V101H248V590H96V670L272 710H370V101H526Z" />
<glyph unicode="2" glyph-name="two" horiz-adv-x="582" d="M535 0H52V101L332 368Q399 431 399 503Q399 553 368 583T285 613Q228 613 199 580T170 493L173 460H52Q50 475 50 495Q50 598 114 661T285 725Q395 725 458 664T522 506Q522 437 495 384T401 273L219
112H535V0Z" />
<glyph unicode="3" glyph-name="three" horiz-adv-x="582" d="M222 312V415H286Q347 415 378 442T410 512Q410 558 380 586T294 615T209 583T178 504H59Q61 598 126 661T295 725Q403 725 465 669T528 519Q528 407 425 367Q537 327 537 206Q537 111 469 48T291
-15Q183 -15 116 46T44 211H164Q168 159 200 127T291 94Q348 94 382 124T416 206Q416 256 383 284T287 312H222Z" />
<glyph unicode="4" glyph-name="four" horiz-adv-x="582" d="M548 261V155H472V0H359V155H19V246L346 710H472V261H548ZM359 547H358L155 261H359V547Z" />
<glyph unicode="5" glyph-name="five" horiz-adv-x="582" d="M64 298L123 710H504V598H215L191 426Q207 442 240 457T316 472Q427 472 483 402T540 234Q540 126 471 56T291 -15Q186 -15 121 42T47 196H170Q177 154 208 125T291 96Q349 96 383 134T418 234Q418
294 384 330T291 367Q256 367 228 351T189 322T174 298H64Z" />
<glyph unicode="6" glyph-name="six" horiz-adv-x="582" d="M297 -15Q183 -15 114 58T45 241Q45 356 110 470T292 710H442Q286 559 218 433Q263 464 321 464Q424 464 486 396T548 229Q548 127 478 56T297 -15ZM424 229Q424 289 389 327T297 365T206 328T170 229T205
130T297 92T388 130T424 229Z" />
<glyph unicode="7" glyph-name="seven" horiz-adv-x="582" d="M160 509H42V710H554V602Q447 461 398 327T319 0H192Q248 370 415 600H160V509Z" />
<glyph unicode="8" glyph-name="eight" horiz-adv-x="582" d="M405 -15T291 -15T112 42T47 192Q47 246 73 293T149 367Q108 392 87 434T65 524Q65 611 126 668T291 725Q396 725 457 668T518 522Q518 474 497 433T432 367Q482 340 508 293T534 192Q534 99 470 42ZM346
308T291 308T203 278T170 200Q170 154 201 123T291 91T381 122T412 200Q412 248 379 278ZM291 417Q343 417 373 445T404 519Q404 560 375 590T291 620T208 591T179 521Q179 475 208 446T291 417Z" />
<glyph unicode="9" glyph-name="nine" horiz-adv-x="582" d="M285 725Q399 725 468 652T537 469Q537 354 472 240T290 0H140Q297 153 364 276Q318 245 261 245Q158 245 96 313T34 481Q34 583 104 654T285 725ZM158 542T158 481T193 382T285 344T376 382T412 481T377
580T285 618T194 580Z" />
<glyph unicode=":" glyph-name="colon" horiz-adv-x="245" d="M159 -8T123 -8T64 14T40 73Q40 108 63 131T123 155Q158 155 181 132T205 73Q205 37 182 15ZM123 363Q87 363 64 386T40 445Q40 480 63 503T123 527Q158 527 181 504T205 445Q205 409 182 386T123 363Z" />
<glyph unicode=";" glyph-name="semicolon" horiz-adv-x="248" d="M123 363Q87 363 64 386T40 445Q40 480 63 503T123 527Q158 527 181 504T205 445Q205 409 182 386T123 363ZM70 139H203L121 -131H15L70 139Z" />
<glyph unicode="&lt;" glyph-name="less" horiz-adv-x="582" d="M528 134V16L54 204V299L528 486V368L202 251L528 134Z" />
<glyph unicode="=" glyph-name="equal" horiz-adv-x="582" d="M552 210V98H30V210H552ZM552 421V308H30V421H552Z" />
<glyph unicode="&gt;" glyph-name="greater" horiz-adv-x="582" d="M54 16V134L380 251L54 368V486L528 299V204L54 16Z" />
<glyph unicode="?" glyph-name="question" horiz-adv-x="525" d="M35 515Q35 604 98 664T262 725Q367 725 427 667T487 521Q487 475 469 435T424 368T371 316T326 267T307 216L309 194H193Q190 205 190 217Q190 259 208 295T252 356T304 406T348 457T366 515Q366
561 339 588T262 616T184 586T155 507L160 462H40Q35 482 35 515ZM256 -8Q221 -8 200 13T178 69T200 124T256 146T312 125T334 69T312 14T256 -8Z" />
<glyph unicode="@" glyph-name="at" horiz-adv-x="820" d="M488 278Q488 360 418 360Q372 360 346 324T319 228Q319 144 394 144Q438 144 463 184T488 278ZM628 39H729Q678 -36 595 -78T415 -121Q244 -121 144 -19T44 248Q44 410 151 519T423 628Q581 628 679
541T777 314Q777 199 716 133T575 67Q508 67 484 118Q446 67 377 67Q309 67 269 110T228 227Q228 315 275 377T402 440Q480 440 513 386L522 426H602L562 225Q562 223 560 216T557 200T555 186Q555 167 565 156T592 144Q637 144 666 190T696 309Q696 425 620 488T421
551Q290 551 211 467T132 250Q132 112 210 34T420 -44Q482 -44 538 -21T628 39Z" />
<glyph unicode="A" glyph-name="A" horiz-adv-x="680" d="M128 0H0L275 710H404L680 0H548L497 137H179L128 0ZM339 560H337L219 247H457L339 560Z" />
<glyph unicode="B" glyph-name="B" horiz-adv-x="668" d="M382 0H84V710H371Q488 710 547 657T606 517Q606 461 579 420T503 359Q556 341 587 299T618 199Q618 105 557 53T382 0ZM381 304H203V110H380Q496 110 496 207Q496 253 466 278T381 304ZM372 600H203V415H372Q484
415 484 507Q484 551 456 575T372 600Z" />
<glyph unicode="C" glyph-name="C" horiz-adv-x="779" d="M45 356Q45 519 144 622T400 725Q533 725 626 651T741 451H612Q594 525 538 567T400 609Q294 609 234 541T173 356T233 171T400 102Q481 102 537 144T612 260H741Q719 134 626 60T400 -14Q244 -14 145 89T45 356Z" />
<glyph unicode="D" glyph-name="D" horiz-adv-x="752" d="M325 0H84V710H325Q505 710 605 613T706 355T606 98T325 0ZM578 241T578 355T514 533T321 598H205V112H321Q449 112 513 176Z" />
<glyph unicode="E" glyph-name="E" horiz-adv-x="636" d="M583 112V0H84V710H583V598H205V416H566V304H205V112H583Z" />
<glyph unicode="F" glyph-name="F" horiz-adv-x="578" d="M205 0H84V710H548V598H205V416H531V304H205V0Z" />
<glyph unicode="G" glyph-name="G" horiz-adv-x="801" d="M401 104Q491 104 550 148T626 278H448V388H755Q756 372 756 356Q756 193 655 91T400 -12T146 90T45 356Q45 518 148 621T407 725Q538 725 633 655T752 464H621Q602 532 544 570T407 609Q301 609 237 540T173
356Q173 243 237 174T401 104Z" />
<glyph unicode="H" glyph-name="H" horiz-adv-x="747" d="M663 710V0H542V304H205V0H84V710H205V416H542V710H663Z" />
<glyph unicode="I" glyph-name="I" horiz-adv-x="289" d="M205 710V0H84V710H205Z" />
<glyph unicode="J" glyph-name="J" horiz-adv-x="584" d="M390 226V710H511V230Q511 119 446 53T270 -13Q161 -13 96 48T30 216L33 262H155Q152 245 152 216Q152 161 183 128T270 95Q328 95 359 129T390 226Z" />
<glyph unicode="K" glyph-name="K" horiz-adv-x="696" d="M707 0H556L329 324L205 195V0H84V710H205V348L534 710H693L413 415L707 0Z" />
<glyph unicode="L" glyph-name="L" horiz-adv-x="545" d="M534 112V0H84V710H205V112H534Z" />
<glyph unicode="M" glyph-name="M" horiz-adv-x="839" d="M195 710L419 416L644 710H755V0H636V519L421 241H417L203 519V0H84V710H195Z" />
<glyph unicode="N" glyph-name="N" horiz-adv-x="755" d="M203 510V0H84V710H207L552 199V710H671V0H547L203 510Z" />
<glyph unicode="O" glyph-name="O" horiz-adv-x="824" d="M173 469T173 355T240 171T412 101T584 171T651 355T584 539T412 609T240 539ZM45 196T45 355T148 619T412 725T676 620T779 355T676 91T412 -15T148 90Z" />
<glyph unicode="P" glyph-name="P" horiz-adv-x="643" d="M205 392H379Q437 392 465 419T494 494T465 570T379 598H205V392ZM205 280V0H84V710H378Q499 710 557 651T616 494Q616 398 556 339T378 280H205Z" />
<glyph unicode="Q" glyph-name="Q" horiz-adv-x="824" d="M779 355Q779 270 748 198T658 75L803 -126H663L563 14Q490 -15 412 -15Q251 -15 148 90T45 355T148 619T412 725T676 620T779 355ZM651 355Q651 469 585 539T412 609Q307 609 240 539T173 355Q173 242
240 172T412 101Q518 101 584 171T651 355Z" />
<glyph unicode="R" glyph-name="R" horiz-adv-x="673" d="M654 0H512L368 280H205V0H84V710H396Q510 710 570 651T630 495Q630 422 595 370T491 295L654 0ZM508 448T508 495T480 570T397 598H205V392H397Q452 392 480 420Z" />
<glyph unicode="S" glyph-name="S" horiz-adv-x="636" d="M312 95Q385 95 425 120T465 194Q465 229 443 251T386 284T309 303T225 324T147 357T90 417T68 515Q68 603 137 664T322 725Q443 725 510 660T580 490H461Q460 545 424 580T322 616Q259 616 224 591T188
518Q188 487 210 467T267 436T345 417T430 395T508 360T566 298T588 199Q588 102 511 44T306 -14Q175 -14 109 55T40 222H160Q164 163 203 129T312 95Z" />
<glyph unicode="T" glyph-name="T" horiz-adv-x="546" d="M539 710V595H333V0H212V595H6V710H539Z" />
<glyph unicode="U" glyph-name="U" horiz-adv-x="744" d="M501 -15T372 -15T160 64T77 292V710H198V287Q198 199 242 148T372 97T501 148T546 287V710H667V292Q667 143 584 64Z" />
<glyph unicode="V" glyph-name="V" horiz-adv-x="687" d="M548 710H681L406 0H280L6 710H143L344 160H346L548 710Z" />
<glyph unicode="W" glyph-name="W" horiz-adv-x="1044" d="M521 539L362 0H232L11 710H148L297 171H299L457 710H590L748 171H750L900 710H1033L812 0H682L523 539H521Z" />
<glyph unicode="X" glyph-name="X" horiz-adv-x="688" d="M344 458L530 710H679L415 361L692 0H539L344 264L148 0H-5L272 361L5 710H157L344 458Z" />
<glyph unicode="Y" glyph-name="Y" horiz-adv-x="630" d="M499 710H640L375 249V0H254V249L-11 710H129L313 374H315L499 710Z" />
<glyph unicode="Z" glyph-name="Z" horiz-adv-x="659" d="M611 710V604L202 112H615V0H44V106L453 598H48V710H611Z" />
<glyph unicode="[" glyph-name="bracketleft" horiz-adv-x="325" d="M303 -57V-166H72V750H303V641H183V-57H303Z" />
<glyph unicode="\" glyph-name="backslash" horiz-adv-x="453" d="M142 710L431 0H311L22 710H142Z" />
<glyph unicode="]" glyph-name="bracketright" horiz-adv-x="325" d="M22 -166V-57H142V641H22V750H253V-166H22Z" />
<glyph unicode="^" glyph-name="asciicircum" horiz-adv-x="582" d="M526 250H408L291 557L174 250H56L243 709H338L526 250Z" />
<glyph unicode="_" glyph-name="underscore" horiz-adv-x="500" d="M500 -89V-200H0V-89H500Z" />
<glyph unicode="`" glyph-name="grave" horiz-adv-x="356" d="M84 760H208L271 589H164L84 760Z" />
<glyph unicode="a" glyph-name="a" horiz-adv-x="635" d="M453 518H563V0H453V74Q400 -12 278 -12Q167 -12 103 65T38 259T102 452T278 530Q400 530 453 444V518ZM157 330T157 259T197 141T303 93Q370 93 409 140T449 259T410 378T303 425Q237 425 197 378Z" />
<glyph unicode="b" glyph-name="b" horiz-adv-x="636" d="M191 451Q244 531 357 531Q469 531 533 453T598 259T534 66T357 -12Q236 -12 182 74V0H72V750H191V451ZM187 259Q187 187 226 140T333 93Q399 93 439 140T479 259Q479 332 439 379T333 426Q266 426 227
379T187 259Z" />
<glyph unicode="c" glyph-name="c" horiz-adv-x="572" d="M38 259Q38 374 111 452T297 531Q404 531 467 471T543 331H421Q410 374 377 400T296 426Q233 426 195 380T157 259T195 139T296 93Q343 93 376 119T421 188H543Q531 109 468 49T297 -12Q184 -12 111 66T38 259Z" />
<glyph unicode="d" glyph-name="d" horiz-adv-x="636" d="M444 451V750H563V0H453V74Q400 -12 278 -12Q167 -12 103 65T38 259T102 453T278 531Q391 531 444 451ZM449 259Q449 332 410 379T303 426Q237 426 197 379T157 259Q157 188 197 141T303 93Q370 93 409
140T449 259Z" />
<glyph unicode="e" glyph-name="e" horiz-adv-x="588" d="M550 225H155Q162 163 200 127T300 90Q341 90 374 110T421 164H541Q517 85 452 37T297 -12Q181 -12 110 65T38 260Q38 375 110 453T296 531T480 455T551 262L550 225ZM296 434Q240 434 203 401T157 313H433Q425
368 389 401T296 434Z" />
<glyph unicode="f" glyph-name="f" horiz-adv-x="321" d="M93 519V574Q93 662 138 706T261 750L301 747V642Q295 644 279 644Q243 644 228 627T212 567V519H304V424H212V0H93V424H10V519H93Z" />
<glyph unicode="g" glyph-name="g" horiz-adv-x="628" d="M450 445V519H560V22Q560 -84 495 -151T312 -219Q205 -219 145 -164T74 -38H193Q215 -117 314 -117Q374 -117 407 -84T441 6V87Q389 7 277 7Q169 7 104 82T38 269T103 455T277 531Q396 531 450 445ZM446
269Q446 338 406 382T301 426Q237 426 197 382T157 269Q157 201 197 157T301 112Q366 112 406 156T446 269Z" />
<glyph unicode="h" glyph-name="h" horiz-adv-x="603" d="M191 750V463Q238 531 342 531Q434 531 484 475T535 326V0H416V311Q416 366 391 397T313 429Q256 429 224 395T191 300V0H72V750H191Z" />
<glyph unicode="i" glyph-name="i" horiz-adv-x="263" d="M132 606Q99 606 78 626T57 679Q57 712 78 733T132 754Q164 754 185 733T206 679Q206 647 185 627T132 606ZM72 0V519H191V0H72Z" />
<glyph unicode="j" glyph-name="j" horiz-adv-x="263" d="M132 606Q99 606 78 626T57 679Q57 712 78 733T132 754Q164 754 185 733T206 679Q206 647 185 627T132 606ZM72 -208V519H191V-208H72Z" />
<glyph unicode="k" glyph-name="k" horiz-adv-x="564" d="M412 519H562L361 300L577 0H435L282 222L191 124V0H72V750H191V266L412 519Z" />
<glyph unicode="l" glyph-name="l" horiz-adv-x="263" d="M191 0H72V750H191V0Z" />
<glyph unicode="m" glyph-name="m" horiz-adv-x="925" d="M524 298V0H405V311Q405 429 307 429Q254 429 223 395T191 302V0H72V519H182V450Q201 485 240 508T337 531Q445 531 493 449Q559 531 669 531Q760 531 809 475T858 326V0H739V311Q739 429 641 429Q587
429 556 395T524 298Z" />
<glyph unicode="n" glyph-name="n" horiz-adv-x="603" d="M182 519V450Q200 484 241 507T342 531Q434 531 484 475T535 326V0H416V311Q416 366 391 397T313 429Q256 429 224 395T191 301V0H72V519H182Z" />
<glyph unicode="o" glyph-name="o" horiz-adv-x="615" d="M307 -12Q187 -12 113 67T38 259T112 451T307 531Q428 531 502 452T577 259T503 67T307 -12ZM157 259Q157 185 199 139T307 93Q373 93 415 139T458 259Q458 334 416 380T307 426Q242 426 200 380T157 259Z" />
<glyph unicode="p" glyph-name="p" horiz-adv-x="636" d="M191 68V-208H72V519H182V445Q237 531 357 531Q469 531 533 453T598 259T534 66T357 -12Q243 -12 191 68ZM187 259Q187 187 226 140T333 93Q399 93 439 140T479 259Q479 332 439 380T333 428Q266 428 227
381T187 259Z" />
<glyph unicode="q" glyph-name="q" horiz-adv-x="636" d="M444 68Q392 -12 278 -12Q167 -12 103 65T38 259T102 453T278 531Q399 531 453 445V519H563V-208H444V68ZM449 259Q449 332 410 379T303 426Q237 426 197 379T157 259Q157 188 197 141T303 93Q370 93 409
140T449 259Z" />
<glyph unicode="r" glyph-name="r" horiz-adv-x="366" d="M352 523V412Q338 414 325 414Q191 414 191 270V0H72V519H182V447Q226 524 335 524L352 523Z" />
<glyph unicode="s" glyph-name="s" horiz-adv-x="502" d="M250 -12Q143 -12 89 38T30 166H145Q147 130 176 108T257 86Q303 86 328 102T353 145Q353 175 323 189T248 211T160 229T86 275T55 368Q55 436 111 483T261 531Q314 531 354 515T417 471T451 416T465 359H351Q348
390 325 412T258 434T192 418T169 372Q169 345 199 331T274 310T362 291T436 243T467 150Q467 80 411 34T250 -12Z" />
<glyph unicode="t" glyph-name="t" horiz-adv-x="306" d="M210 424V0H91V424H12V519H91V654H210V519H297V424H210Z" />
<glyph unicode="u" glyph-name="u" horiz-adv-x="592" d="M186 93T296 93T406 214V519H525V220Q525 113 471 51T296 -12T122 50T67 220V519H186V214Q186 93 296 93Z" />
<glyph unicode="v" glyph-name="v" horiz-adv-x="545" d="M273 141L417 519H540L328 0H216L5 519H131L273 141Z" />
<glyph unicode="w" glyph-name="w" horiz-adv-x="848" d="M542 0L425 356H424L306 0H193L12 519H135L251 147L370 519H480L598 146L715 519H836L655 0H542Z" />
<glyph unicode="x" glyph-name="x" horiz-adv-x="540" d="M534 519L337 263L541 0H397L270 174L142 0H-1L202 263L5 519H148L270 353L391 519H534Z" />
<glyph unicode="y" glyph-name="y" horiz-adv-x="545" d="M126 -208L214 4L5 519H132L273 143L416 519H540L244 -208H126Z" />
<glyph unicode="z" glyph-name="z" horiz-adv-x="539" d="M485 422L199 103H489V0H50V97L335 416H54V519H485V422Z" />
<glyph unicode="{" glyph-name="braceleft" horiz-adv-x="342" d="M275 -166Q109 -166 109 5V186Q109 241 58 241H40V343H58Q109 343 109 398V579Q109 750 275 750L320 747V638Q302 641 282 641Q248 641 235 625T221 575V398Q221 324 174 292Q221 259 221 185V9Q221
-25 234 -41T282 -57L320 -54V-163Q302 -166 275 -166Z" />
<glyph unicode="|" glyph-name="bar" horiz-adv-x="289" d="M203 0H85V750H203V0Z" />
<glyph unicode="}" glyph-name="braceright" horiz-adv-x="342" d="M67 -166L22 -163V-54Q40 -57 59 -57Q93 -57 107 -41T121 9V185Q121 259 167 292Q121 323 121 398V575Q121 609 107 625T59 641L22 638V747Q40 750 67 750Q232 750 232 579V398Q232 343 283 343H302V241H283Q232
241 232 186V5Q232 -166 67 -166Z" />
<glyph unicode="~" glyph-name="asciitilde" horiz-adv-x="582" d="M390 178Q344 178 284 201T191 224Q163 224 144 212T118 188L113 176L27 229Q29 233 32 240T48 265T79 297T126 322T192 334Q241 334 300 311T391 288Q419 288 438 300T464 324L469 335L554 282Q552
278 549 271T533 246T502 214T455 189T390 178Z" />
</font>
</defs>
</svg>
