<?xml version="1.0" standalone="no"?> <!DOCTYPE svg PUBLIC "-//W3C//DTD SVG 1.0//EN" "http://www.w3.org/TR/2001/REC-SVG-20010904/DTD/svg10.dtd" > <svg xmlns="http://www.w3.org/2000/svg" width="100%" height="100%">
<defs >
<font horiz-adv-x="578" ><font-face
    font-family=""
    units-per-em="1000"
    panose-1="2 0 0 0 0 0 0 0 0 0"
    ascent="777"
    descent="-223"
    alphabetic="0" />
<missing-glyph horiz-adv-x="260" />
<glyph unicode=" " glyph-name="space" horiz-adv-x="260" />
<glyph unicode="!" glyph-name="exclam" horiz-adv-x="282" d="M82 218L57 710H225L200 218H82ZM141 -8Q102 -8 77 17T51 81T76 145T141 171Q181 171 206 146T231 81Q231 41 206 17T141 -8Z" />
<glyph unicode="&quot;" glyph-name="quotedbl" horiz-adv-x="444" d="M189 710V384H55V710H189ZM389 710V384H255V710H389Z" />
<glyph unicode="#" glyph-name="numbersign" horiz-adv-x="616" d="M586 514L564 410H474L451 300H541L519 196H429L388 0H281L322 196H235L194 0H87L128 196H30L52 300H150L173 410H75L97 514H195L237 710H344L302 514H389L431 710H538L496 514H586ZM280 410L257
300H344L367 410H280Z" />
<glyph unicode="$" glyph-name="dollar" horiz-adv-x="582" d="M337 -125H265V-14Q153 -8 93 59T33 224H177Q178 184 200 156T265 119V297L212 312Q133 334 93 387T52 516Q52 600 112 657T265 723V835H337V723Q436 711 492 647T548 488H404Q402 565 337 587V425L365
418Q548 368 548 197Q548 114 491 58T337 -12V-125ZM197 521Q197 511 198 503T203 488T210 477T221 468T232 461T248 453T265 445V591Q235 586 216 567T197 521ZM400 197Q400 253 337 277V121Q400 138 400 197Z" />
<glyph unicode="%" glyph-name="percent" horiz-adv-x="963" d="M234 0L626 710H729L337 0H234ZM186 560T186 489T199 392T242 365T284 391T298 489T285 587T242 614T200 587ZM76 384T76 489T116 655T242 716T367 655T408 489T368 324T242 263T117 323ZM665 291T665
220T678 123T721 96T763 122T777 220T764 318T721 345T679 318ZM555 115T555 220T595 386T721 447T846 386T887 220T847 55T721 -6T596 54Z" />
<glyph unicode="&amp;" glyph-name="ampersand" horiz-adv-x="675" d="M105 464T105 540T160 670T313 725T466 671T521 540Q521 420 374 354L487 230Q507 276 507 333L503 390H632Q635 362 635 335Q635 219 576 132L697 0H525L487 42Q402 -15 291 -15Q178 -15
106 42T33 193Q33 334 169 394Q105 464 105 540ZM295 109Q355 109 402 135L252 301Q208 281 189 259T170 203Q170 162 203 136T295 109ZM236 540Q236 505 282 455L290 446L319 459Q390 489 390 540Q390 570 369 591T313 612Q278 612 257 592T236 540Z" />
<glyph unicode="&apos;" glyph-name="quotesingle" horiz-adv-x="244" d="M189 710V384H55V710H189Z" />
<glyph unicode="(" glyph-name="parenleft" horiz-adv-x="365" d="M235 538T235 292T343 -166H200Q90 14 90 292T200 750H343Q235 538 235 292Z" />
<glyph unicode=")" glyph-name="parenright" horiz-adv-x="365" d="M130 46T130 292T22 750H165Q275 570 275 292T165 -166H22Q130 46 130 292Z" />
<glyph unicode="*" glyph-name="asterisk" horiz-adv-x="388" d="M377 559L267 523L334 430L261 376L193 470L125 376L52 429L121 523L11 559L39 645L149 609V725H239V609L349 645L377 559Z" />
<glyph unicode="+" glyph-name="plus" horiz-adv-x="582" d="M224 524H358V329H553V195H358V0H224V195H29V329H224V524Z" />
<glyph unicode="," glyph-name="comma" horiz-adv-x="260" d="M66 161H223L136 -142H9L66 161Z" />
<glyph unicode="-" glyph-name="hyphen" horiz-adv-x="411" d="M367 329V195H44V329H367Z" />
<glyph unicode="." glyph-name="period" horiz-adv-x="260" d="M172 -8T130 -8T61 18T34 87Q34 128 61 155T130 183Q171 183 198 156T226 87Q226 45 199 19Z" />
<glyph unicode="/" glyph-name="slash" horiz-adv-x="476" d="M22 0L311 710H454L165 0H22Z" />
<glyph unicode="0" glyph-name="zero" horiz-adv-x="582" d="M417 -15T291 -15T99 86T33 355T99 623T291 725T483 624T549 355T483 87ZM347 587T291 587T208 531T181 355T208 179T291 123T374 179T401 355T374 531Z" />
<glyph unicode="1" glyph-name="one" horiz-adv-x="582" d="M533 120V0H85V120H236V566H88V661L264 710H382V120H533Z" />
<glyph unicode="2" glyph-name="two" horiz-adv-x="582" d="M540 0H51V120L329 390Q382 440 382 503Q382 542 355 566T286 591Q239 591 215 564T190 493L193 454H49Q46 471 46 495Q46 598 112 661T286 725Q396 725 462 664T528 506Q528 436 502 385T411 276L250
134H540V0Z" />
<glyph unicode="3" glyph-name="three" horiz-adv-x="582" d="M224 303V424H290Q341 424 367 446T393 507T369 569T297 594Q247 594 222 565T197 494H55Q55 592 122 658T297 725Q406 725 470 668T534 516Q534 409 438 367Q542 327 542 209Q542 114 472 50T291
-15Q182 -15 113 48T40 216H182Q184 171 212 144T291 116Q339 116 368 142T397 209Q397 252 371 277T288 303H224Z" />
<glyph unicode="4" glyph-name="four" horiz-adv-x="582" d="M550 272V145H482V0H348V145H16V253L329 710H482V272H550ZM348 520H347L177 272H348V520Z" />
<glyph unicode="5" glyph-name="five" horiz-adv-x="582" d="M60 295L119 710H506V576H229L209 436Q225 452 256 464T322 477Q382 477 427 456T498 398T534 320T546 235Q546 126 476 56T291 -15Q185 -15 119 43T44 199H191Q198 165 223 142T291 118Q341 118 370
150T400 235T371 320T291 352Q259 352 235 338T201 310L192 295H60Z" />
<glyph unicode="6" glyph-name="six" horiz-adv-x="582" d="M297 -15Q181 -15 111 60T40 245Q40 350 100 463T277 710H453Q309 556 245 447Q280 466 328 466Q431 466 491 399T552 231Q552 127 481 56T297 -15ZM404 179T404 231T374 316T297 349T220 316T190 231T220
146T297 113T374 146Z" />
<glyph unicode="7" glyph-name="seven" horiz-adv-x="582" d="M547 710V580Q377 360 329 0H178Q229 339 383 578H179V490H35V710H547Z" />
<glyph unicode="8" glyph-name="eight" horiz-adv-x="582" d="M405 -15T291 -15T111 42T45 193Q45 245 69 292T139 367Q62 418 62 520Q62 610 124 667T291 725T459 667T522 518Q522 417 443 367Q489 339 513 292T537 193Q537 99 471 42ZM337 296T291 296T218 270T191
204Q191 166 217 139T291 112T365 139T391 204Q391 244 364 270ZM291 427Q335 427 360 451T386 514Q386 548 361 574T291 600T222 575T198 516Q198 476 223 452T291 427Z" />
<glyph unicode="9" glyph-name="nine" horiz-adv-x="582" d="M285 725Q401 725 471 650T542 465Q542 360 482 247T305 0H129Q273 157 337 262Q302 244 254 244Q151 244 91 311T30 479Q30 583 101 654T285 725ZM178 531T178 479T208 394T285 361T362 394T392 479T362
564T285 597T208 564Z" />
<glyph unicode=":" glyph-name="colon" horiz-adv-x="260" d="M172 -8T130 -8T61 18T34 87Q34 128 61 155T130 183Q171 183 198 156T226 87Q226 45 199 19ZM172 341T130 341T61 367T34 436Q34 477 61 504T130 532Q171 532 198 505T226 436Q226 394 199 368Z" />
<glyph unicode=";" glyph-name="semicolon" horiz-adv-x="263" d="M172 341T130 341T61 367T34 436Q34 477 61 504T130 532Q171 532 198 505T226 436Q226 394 199 368ZM66 161H223L136 -142H9L66 161Z" />
<glyph unicode="&lt;" glyph-name="less" horiz-adv-x="582" d="M528 151V11L54 195V307L528 491V351L231 251L528 151Z" />
<glyph unicode="=" glyph-name="equal" horiz-adv-x="582" d="M553 222V88H29V222H553ZM553 436V302H29V436H553Z" />
<glyph unicode="&gt;" glyph-name="greater" horiz-adv-x="582" d="M54 11V151L351 251L54 351V491L528 307V195L54 11Z" />
<glyph unicode="?" glyph-name="question" horiz-adv-x="532" d="M33 513Q33 605 97 665T266 725Q376 725 437 666T499 515Q499 470 481 432T437 368T385 322T341 278T323 232L325 212H185Q183 225 183 234Q183 278 200 314T243 373T294 418T337 462T355 511Q355
550 331 572T267 595T202 571T176 507L182 454H40Q33 480 33 513ZM260 -8Q220 -8 195 16T170 81Q170 120 195 145T260 171Q299 171 324 146T350 81T325 17T260 -8Z" />
<glyph unicode="@" glyph-name="at" horiz-adv-x="818" d="M481 278Q481 348 419 348Q378 348 354 315T329 229Q329 193 347 175T396 156Q436 156 458 192T481 278ZM616 45H733Q681 -32 596 -76T414 -120Q242 -120 141 -18T40 249Q40 412 149 520T420 629Q579
629 678 542T778 314Q778 197 715 133T571 68Q505 68 478 113Q441 68 376 68Q307 68 266 111T224 228Q224 316 271 378T398 441Q473 441 507 393L515 427H607L562 204Q560 196 560 191Q560 176 568 166T592 155Q631 155 658 198T685 309Q685 422 611 481T417 540Q294
540 218 460T142 251Q142 119 217 44T421 -31Q475 -31 528 -10T616 45Z" />
<glyph unicode="A" glyph-name="A" horiz-adv-x="684" d="M151 0H-2L265 710H419L686 0H529L486 122H194L151 0ZM341 530H339L241 253H439L341 530Z" />
<glyph unicode="B" glyph-name="B" horiz-adv-x="665" d="M388 0H75V710H375Q492 710 551 656T611 515Q611 460 585 420T512 358Q562 339 591 298T621 201Q621 107 561 54T388 0ZM384 293H217V131H384Q474 131 474 212Q474 249 452 271T384 293ZM374 579H217V425H374Q417
425 440 444T464 502Q464 536 442 557T374 579Z" />
<glyph unicode="C" glyph-name="C" horiz-adv-x="778" d="M42 191T42 356T143 623T399 725Q534 725 628 650T743 447H587Q571 513 521 549T399 586Q303 586 250 524T196 356T249 188T399 126Q471 126 521 162T587 265H743Q723 137 629 62T399 -13Q244 -13 143 89Z" />
<glyph unicode="D" glyph-name="D" horiz-adv-x="746" d="M330 0H75V710H330Q507 710 605 612T704 355T606 98T330 0ZM550 251T550 355T495 517T326 576H221V134H326Q439 134 494 192Z" />
<glyph unicode="E" glyph-name="E" horiz-adv-x="636" d="M586 134V0H75V710H586V576H221V427H571V293H221V134H586Z" />
<glyph unicode="F" glyph-name="F" horiz-adv-x="575" d="M221 0H75V710H546V576H221V427H531V293H221V0Z" />
<glyph unicode="G" glyph-name="G" horiz-adv-x="800" d="M452 262V393H757Q758 378 758 356Q758 192 657 91T405 -11Q245 -11 144 90T42 356Q42 520 145 622T405 725Q535 725 629 652T749 459H592Q576 518 525 552T405 586Q308 586 252 524T196 356Q196 251 252
188T405 124Q478 124 530 161T602 262H452Z" />
<glyph unicode="H" glyph-name="H" horiz-adv-x="739" d="M664 710V0H518V293H221V0H75V710H221V427H518V710H664Z" />
<glyph unicode="I" glyph-name="I" horiz-adv-x="296" d="M221 710V0H75V710H221Z" />
<glyph unicode="J" glyph-name="J" horiz-adv-x="580" d="M369 229V710H515V233Q515 121 448 54T268 -13Q157 -13 90 48T22 217L25 265H171Q168 247 168 217Q168 169 195 143T268 116Q317 116 343 146T369 229Z" />
<glyph unicode="K" glyph-name="K" horiz-adv-x="693" d="M711 0H531L329 305L221 187V0H75V710H221V372L510 710H700L430 415L711 0Z" />
<glyph unicode="L" glyph-name="L" horiz-adv-x="547" d="M536 134V0H75V710H221V134H536Z" />
<glyph unicode="M" glyph-name="M" horiz-adv-x="834" d="M209 710L417 435L625 710H759V0H619V484L419 227H415L215 484V0H75V710H209Z" />
<glyph unicode="N" glyph-name="N" horiz-adv-x="749" d="M217 469V0H75V710H222L532 241V710H674V0H527L217 469Z" />
<glyph unicode="O" glyph-name="O" horiz-adv-x="822" d="M780 515T780 355T676 90T411 -15T146 90T42 355T146 620T411 725T676 620ZM626 251T626 355T566 522T411 586T256 523T196 355T256 188T411 124T566 187Z" />
<glyph unicode="P" glyph-name="P" horiz-adv-x="643" d="M221 403H379Q427 403 451 426T475 489T451 552T379 576H221V403ZM221 269V0H75V710H379Q501 710 561 649T621 489Q621 391 560 330T379 269H221Z" />
<glyph unicode="Q" glyph-name="Q" horiz-adv-x="822" d="M780 355Q780 187 667 82L815 -124H649L553 10Q486 -15 411 -15Q250 -15 146 90T42 355T146 620T411 725T676 620T780 355ZM626 251T626 355T566 522T411 586T256 523T196 355T256 188T411 124T566 187Z" />
<glyph unicode="R" glyph-name="R" horiz-adv-x="674" d="M663 0H494L361 269H221V0H75V710H397Q510 710 572 649T634 488Q634 416 602 363T508 285L663 0ZM488 448T488 488T465 552T397 576H221V403H397Q442 403 465 425Z" />
<glyph unicode="S" glyph-name="S" horiz-adv-x="635" d="M317 116Q376 116 409 137T442 198Q442 226 421 244T367 272T293 290T212 312T138 347T83 409T62 506Q62 599 132 662T321 725Q441 725 511 657T585 488H442Q440 536 408 565T319 595Q268 595 237 573T206
515Q206 486 227 468T282 440T357 422T439 399T514 364T569 301T590 203Q590 107 513 47T309 -14Q238 -14 184 6T99 62T53 138T35 225H179Q182 178 217 147T317 116Z" />
<glyph unicode="T" glyph-name="T" horiz-adv-x="546" d="M541 710V573H346V0H200V573H5V710H541Z" />
<glyph unicode="U" glyph-name="U" horiz-adv-x="748" d="M503 -15T374 -15T159 64T73 292V710H219V288Q219 210 257 165T374 120T490 165T529 288V710H675V292Q675 143 589 64Z" />
<glyph unicode="V" glyph-name="V" horiz-adv-x="696" d="M532 710H692L423 0H273L4 710H168L349 194H351L532 710Z" />
<glyph unicode="W" glyph-name="W" horiz-adv-x="1050" d="M524 502L380 0H226L8 710H172L304 208H306L448 710H606L748 208H750L882 710H1042L824 0H670L526 502H524Z" />
<glyph unicode="X" glyph-name="X" horiz-adv-x="694" d="M347 478L512 710H690L432 361L704 0H521L348 245L173 0H-10L262 361L1 710H182L347 478Z" />
<glyph unicode="Y" glyph-name="Y" horiz-adv-x="638" d="M485 710H654L392 248V0H246V248L-16 710H153L318 397H320L485 710Z" />
<glyph unicode="Z" glyph-name="Z" horiz-adv-x="668" d="M620 710V582L234 134H624V0H44V128L430 576H48V710H620Z" />
<glyph unicode="[" glyph-name="bracketleft" horiz-adv-x="337" d="M315 -35V-166H70V750H315V619H203V-35H315Z" />
<glyph unicode="\" glyph-name="backslash" horiz-adv-x="476" d="M165 710L454 0H311L22 710H165Z" />
<glyph unicode="]" glyph-name="bracketright" horiz-adv-x="337" d="M22 -166V-35H134V619H22V750H267V-166H22Z" />
<glyph unicode="^" glyph-name="asciicircum" horiz-adv-x="582" d="M531 255H391L291 526L191 255H51L235 709H347L531 255Z" />
<glyph unicode="_" glyph-name="underscore" horiz-adv-x="500" d="M500 -85V-219H0V-85H500Z" />
<glyph unicode="`" glyph-name="grave" horiz-adv-x="359" d="M75 760H222L283 589H155L75 760Z" />
<glyph unicode="a" glyph-name="a" horiz-adv-x="635" d="M439 524H570V0H439V64Q387 -12 273 -12Q162 -12 97 66T32 262T97 458T273 536Q387 536 439 460V524ZM432 197T432 262T397 369T303 411T210 369T174 262T209 155T303 113T396 155Z" />
<glyph unicode="b" glyph-name="b" horiz-adv-x="635" d="M207 468Q229 497 269 516T362 536Q473 536 538 458T603 262T538 66T362 -12Q248 -12 196 64V0H65V750H207V468ZM203 327T203 262T238 155T332 113T425 155T461 262T426 369T332 411T239 369Z" />
<glyph unicode="c" glyph-name="c" horiz-adv-x="569" d="M32 145T32 262T106 457T295 536Q407 536 471 473T545 332H399Q391 366 362 388T294 410Q238 410 206 370T174 262T206 155T294 114Q333 114 362 136T399 192H545Q536 114 472 51T295 -12Q181 -12 107 66Z" />
<glyph unicode="d" glyph-name="d" horiz-adv-x="635" d="M428 468V750H570V0H439V64Q387 -12 273 -12Q162 -12 97 66T32 262T97 458T273 536Q325 536 365 517T428 468ZM432 197T432 262T397 369T303 411T210 369T174 262T209 155T303 113T396 155Z" />
<glyph unicode="e" glyph-name="e" horiz-adv-x="586" d="M553 221H173Q180 167 213 139T300 110Q334 110 361 124T401 167H544Q521 87 454 38T296 -12Q180 -12 106 65T32 263Q32 380 106 458T295 536T482 459T555 263L553 221ZM294 422Q246 422 215 396T175 323H413Q405
368 374 395T294 422Z" />
<glyph unicode="f" glyph-name="f" horiz-adv-x="326" d="M227 524H308V412H227V0H85V412H10V524H85V566Q85 658 132 704T263 750L305 748V626Q299 627 283 627Q227 627 227 569V524Z" />
<glyph unicode="g" glyph-name="g" horiz-adv-x="626" d="M435 460V524H566V20Q566 -85 498 -152T313 -219Q202 -219 141 -160T72 -28H214Q228 -97 315 -97Q368 -97 396 -70T424 5V78Q373 10 271 10Q164 10 98 85T32 273T98 460T271 536Q383 536 435 460ZM428
211T428 273T393 373T301 411T209 373T174 273T209 173T301 135T393 173Z" />
<glyph unicode="h" glyph-name="h" horiz-adv-x="605" d="M207 750V476Q252 536 352 536Q445 536 495 480T545 327V0H403V311Q403 414 314 414Q263 414 235 384T207 299V0H65V750H207Z" />
<glyph unicode="i" glyph-name="i" horiz-adv-x="272" d="M174 592T136 592T74 616T50 677T74 738T136 763T198 739T222 677T198 616ZM65 0V524H207V0H65Z" />
<glyph unicode="j" glyph-name="j" horiz-adv-x="272" d="M174 592T136 592T74 616T50 677T74 738T136 763T198 739T222 677T198 616ZM65 -208V524H207V-208H65Z" />
<glyph unicode="k" glyph-name="k" horiz-adv-x="570" d="M398 524H576L380 301L590 0H422L286 207L207 117V0H65V750H207V286L398 524Z" />
<glyph unicode="l" glyph-name="l" horiz-adv-x="272" d="M207 0H65V750H207V0Z" />
<glyph unicode="m" glyph-name="m" horiz-adv-x="923" d="M535 298V0H393V311Q393 414 309 414Q260 414 234 384T207 301V0H65V524H196V460Q237 536 347 536Q451 536 499 462Q566 536 673 536Q765 536 814 479T863 327V0H721V311Q721 414 637 414Q587 414 561
384T535 298Z" />
<glyph unicode="n" glyph-name="n" horiz-adv-x="605" d="M196 524V460Q237 536 352 536Q445 536 495 480T545 327V0H403V311Q403 414 314 414Q263 414 235 384T207 300V0H65V524H196Z" />
<glyph unicode="o" glyph-name="o" horiz-adv-x="614" d="M430 -12T307 -12T108 67T32 262T108 456T307 536T506 457T582 262T506 68ZM174 331T174 262T211 153T307 113T402 153T440 262T403 371T307 411T212 371Z" />
<glyph unicode="p" glyph-name="p" horiz-adv-x="635" d="M207 56V-208H65V524H196V460Q248 536 362 536Q473 536 538 458T603 262T538 66T362 -12Q310 -12 270 7T207 56ZM203 327T203 262T238 155T332 113T425 155T461 262T426 369T332 411T239 369Z" />
<glyph unicode="q" glyph-name="q" horiz-adv-x="635" d="M428 56Q406 27 366 8T273 -12Q162 -12 97 66T32 262T97 458T273 536Q387 536 439 460V524H570V-208H428V56ZM432 197T432 262T397 369T303 411T210 369T174 262T209 155T303 113T396 155Z" />
<glyph unicode="r" glyph-name="r" horiz-adv-x="373" d="M361 528V395Q346 398 333 398Q270 398 239 365T207 261V0H65V524H196V456Q241 529 344 529L361 528Z" />
<glyph unicode="s" glyph-name="s" horiz-adv-x="501" d="M251 -12Q37 -12 24 170H168Q170 141 191 122T255 102Q295 102 316 115T337 150Q337 174 307 185T235 204T149 223T76 270T46 363Q46 436 104 486T256 536Q363 536 415 482T471 359H334Q332 386 312 404T255
422Q221 422 202 408T183 371Q183 347 213 336T285 319T370 300T443 252T473 156Q473 83 414 36T251 -12Z" />
<glyph unicode="t" glyph-name="t" horiz-adv-x="312" d="M225 412V0H83V412H12V524H83V654H225V524H302V412H225Z" />
<glyph unicode="u" glyph-name="u" horiz-adv-x="596" d="M416 -12T298 -12T120 44T60 224V524H202V222Q202 115 298 115T394 222V524H536V224Q536 100 476 44Z" />
<glyph unicode="v" glyph-name="v" horiz-adv-x="552" d="M277 171L405 524H552L342 0H210L0 524H150L277 171Z" />
<glyph unicode="w" glyph-name="w" horiz-adv-x="859" d="M537 0L431 324H429L322 0H189L6 524H153L258 179L366 524H494L603 177L709 524H853L670 0H537Z" />
<glyph unicode="x" glyph-name="x" horiz-adv-x="540" d="M545 524L350 266L551 0H380L270 159L160 0H-11L190 266L-5 524H166L270 374L374 524H545Z" />
<glyph unicode="y" glyph-name="y" horiz-adv-x="552" d="M119 -208L207 9L0 524H151L277 174L404 524H552L259 -208H119Z" />
<glyph unicode="z" glyph-name="z" horiz-adv-x="545" d="M491 407L228 123H495V0H50V117L312 401H54V524H491V407Z" />
<glyph unicode="{" glyph-name="braceleft" horiz-adv-x="356" d="M291 -166Q195 -166 151 -119T107 22V176Q107 231 56 231H40V353H56Q107 353 107 408V562Q107 656 151 703T291 750L334 748V617Q317 619 300 619Q266 619 253 604T240 555V406Q240 328 190 292Q240
254 240 178V29Q240 -5 253 -20T300 -35L334 -33V-164Q316 -166 291 -166Z" />
<glyph unicode="|" glyph-name="bar" horiz-adv-x="296" d="M219 0H77V750H219V0Z" />
<glyph unicode="}" glyph-name="braceright" horiz-adv-x="356" d="M65 -166L22 -164V-33Q39 -35 56 -35Q90 -35 103 -20T116 29V178Q116 254 165 292Q116 328 116 406V555Q116 589 103 604T56 619L22 617V748Q40 750 65 750Q161 750 205 703T249 562V408Q249
353 300 353H316V231H300Q249 231 249 176V22Q249 -72 205 -119T65 -166Z" />
<glyph unicode="~" glyph-name="asciitilde" horiz-adv-x="582" d="M389 169Q342 169 283 192T192 215Q164 215 146 203T124 179L119 167L18 228Q20 233 23 241T41 269T73 304T123 332T193 345Q245 345 302 322T390 299Q418 299 436 311T458 335L463 347L564 286Q562
281 559 273T541 245T509 210T459 182T389 169Z" />
</font>
</defs>
</svg>
